<?xml version="1.0" standalone="no"?>
<!DOCTYPE svg PUBLIC "-//W3C//DTD SVG 20010904//EN"
 "http://www.w3.org/TR/2001/REC-SVG-20010904/DTD/svg10.dtd">
<svg version="1.0" xmlns="http://www.w3.org/2000/svg"
 width="384.000000pt" height="202.000000pt" viewBox="0 0 384.000000 202.000000"
 preserveAspectRatio="xMidYMid meet">

<g transform="translate(0.000000,202.000000) scale(0.100000,-0.100000)"
fill="#1A1412" stroke="none">
<path d="M2120 1974 c-201 -26 -1169 -227 -1327 -275 -91 -28 -193 -83 -238
-127 -72 -73 -125 -206 -305 -775 -153 -484 -210 -696 -210 -779 0 -17 66 -18
1869 -18 l1869 0 5 23 c31 123 32 403 3 567 -32 171 -65 252 -147 357 -105
134 -722 844 -762 876 -82 67 -169 100 -352 133 -80 15 -339 26 -405 18z"/>
</g>
</svg>
